HIERARCHY
ROOT Hips
{
  OFFSET 32.6827 98.6809 -11.4896
  CHANNELS 6 Xposition Yposition Zposition Zrotation Xrotation Yrotation
  JOINT spine
  {
    OFFSET 0 8.30104 0.477351
    CHANNELS 3 Zrotation Xrotation Yrotation
    JOINT spine1
    {
      OFFSET 0 10.4565 0
      CHANNELS 3 Zrotation Xrotation Yrotation
      JOINT spine2
      {
        OFFSET 0 10.0192 0
        CHANNELS 3 Zrotation Xrotation Yrotation
        JOINT Neck
        {
          OFFSET 0 25.7235 1.22641
          CHANNELS 3 Zrotation Xrotation Yrotation
          JOINT Head
          {
            OFFSET 0 7.77175 0
            CHANNELS 3 Zrotation Xrotation Yrotation
            End Site
            {
              OFFSET 0 18.812 -6.20394
            }
          }
        }
        JOINT RightShoulder
        {
          OFFSET -4.2188 10.82 -0.587439
          CHANNELS 3 Zrotation Xrotation Yrotation
          JOINT RightArm
          {
            OFFSET 0 14.1914 0
            CHANNELS 3 Zrotation Xrotation Yrotation
            JOINT RightArmRoll
            {
              OFFSET 0 7.16408 0
              CHANNELS 3 Zrotation Xrotation Yrotation
              JOINT RightForeArm
              {
                OFFSET 0 20.8665 0
                CHANNELS 3 Zrotation Xrotation Yrotation
                JOINT RightForeArmRoll
                {
                  OFFSET 0 8.03921 0
                  CHANNELS 3 Zrotation Xrotation Yrotation
                  JOINT RightHand
                  {
                    OFFSET 0 16.133 0
                    CHANNELS 3 Zrotation Xrotation Yrotation
                    End Site
                    {
                      OFFSET 0 0 0
                    }
                  }
                }
              }
            }
          }
        }
        JOINT LeftShoulder
        {
          OFFSET 4.2188 10.82 -0.587439
          CHANNELS 3 Zrotation Xrotation Yrotation
          JOINT LeftArm
          {
            OFFSET 0 14.1914 0
            CHANNELS 3 Zrotation Xrotation Yrotation
            JOINT LeftArmRoll
            {
              OFFSET 0 7.16408 0
              CHANNELS 3 Zrotation Xrotation Yrotation
              JOINT LeftForeArm
              {
                OFFSET 0 20.8665 0
                CHANNELS 3 Zrotation Xrotation Yrotation
                JOINT LeftForeArmRoll
                {
                  OFFSET 0 8.03921 0
                  CHANNELS 3 Zrotation Xrotation Yrotation
                  JOINT LeftHand
                  {
                    OFFSET 0 16.133 0
                    CHANNELS 3 Zrotation Xrotation Yrotation
                    End Site
                    {
                      OFFSET 0 0 0
                    }
                  }
                }
              }
            }
          }
        }
      }
    }
  }
  JOINT RightUpLeg
  {
    OFFSET -7.35773 -1.34921 -1.13181
    CHANNELS 3 Zrotation Xrotation Yrotation
    JOINT RightUpLegRoll
    {
      OFFSET 0 18.9168 0
      CHANNELS 3 Zrotation Xrotation Yrotation
      JOINT RightLeg
      {
        OFFSET 0 -23.4256 0
        CHANNELS 3 Zrotation Xrotation Yrotation
        JOINT RightLegRoll
        {
          OFFSET 0 23.5023 0
          CHANNELS 3 Zrotation Xrotation Yrotation
          JOINT RightFoot
          {
            OFFSET 0 19.5617 0
            CHANNELS 3 Zrotation Xrotation Yrotation
            JOINT RightToeBase
            {
              OFFSET 0 16.3526 0
              CHANNELS 3 Zrotation Xrotation Yrotation
              End Site
              {
                OFFSET 0.00693125 7.91944 -0.912836
              }
            }
          }
        }
      }
    }
  }
  JOINT LeftUpLeg
  {
    OFFSET 7.35773 -1.34921 -1.13181
    CHANNELS 3 Zrotation Xrotation Yrotation
    JOINT LeftUpLegRoll
    {
      OFFSET 0 18.9169 0
      CHANNELS 3 Zrotation Xrotation Yrotation
      JOINT LeftLeg
      {
        OFFSET 0 23.4255 0
        CHANNELS 3 Zrotation Xrotation Yrotation
        JOINT LeftLegRoll
        {
          OFFSET 0 23.7195 0
          CHANNELS 3 Zrotation Xrotation Yrotation
          JOINT LeftFoot
          {
            OFFSET 0 19.3444 0
            CHANNELS 3 Zrotation Xrotation Yrotation
            JOINT LeftToeBase
            {
              OFFSET 0 16.3526 0
              CHANNELS 3 Zrotation Xrotation Yrotation
              End Site
              {
                OFFSET -0.0310629 7.91943 -0.912837
              }
            }
          }
        }
      }
    }
  }
}
MOTION
Frames: 11
Frame Time: 0.00208333
38.0368 98.6343 -1.03217 0.892428 -3.68013 1.27496 0.164529 -0.874212 0.25511 0.330221 2.25505 0.475838 0.324804 3.90009 0.470693 1.01865 20.3439 -1.48263 -2.93106 -6.47822 -1.60862 75.054 -1.36328 -2.48059 94.1236 23.3542 21.0791 2.38542e-014 -3.18055e-015 9.54166e-015 12.4258 0.093532 0.00562295 4.20896e-006 -4.5063e-006 -3.02321 8.02888 -4.95143 0.697689 -66.1543 4.78699 -1.6242 -101.43 14.6327 -14.2927 2.01359e-005 -8.02752e-007 -4.60132e-007 -10.4299 6.21629 1.15873 7.09615e-006 1.30949e-006 3.00371 -8.02893 -4.95146 -0.697683 179.183 -2.50725 -0.395652 180 7.01554e-015 178.956 176.149 5.20714 179.732 -6.50077e-006 -2.11551e-006 0.0583639 -18.2999 67.6652 19.2647 8.14357 25.2323 -3.49075 -178.722 0.488348 2.60931 4.54188e-006 -4.6773e-006 -1.12573 -3.36365 -11.5528 0.443116 -2.09023e-006 -4.95066e-006 -0.160834 19.0305 68.4644 -19.9202 -8.12425 25.2333 3.48252 
38.0368 98.6315 -1.02868 0.893152 -3.67737 1.27675 0.164507 -0.873969 0.254638 0.331 2.25545 0.476603 0.325584 3.9005 0.47144 1.02869 20.3476 -1.48211 -2.94072 -6.48685 -1.60657 75.053 -1.36283 -2.48029 94.1305 23.3536 21.0696 -1.27222e-014 3.18055e-015 -0 12.4371 0.0935279 -1.84373e-005 4.20896e-006 -4.5063e-006 -3.02345 8.02888 -4.95143 0.697689 -66.1473 4.78518 -1.62445 -101.446 14.6165 -14.2761 2.01359e-005 -8.02752e-007 -4.60132e-007 -10.4448 6.20505 1.15737 7.09615e-006 1.30949e-006 3.00371 -8.02893 -4.95146 -0.697683 179.183 -2.50686 -0.393068 180 7.01554e-015 178.956 176.145 5.21004 179.733 -6.50077e-006 -2.11551e-006 0.0583639 -18.2985 67.6635 19.2632 8.14357 25.2323 -3.49075 -178.72 0.493161 2.60544 4.54188e-006 -4.6773e-006 -1.12573 -3.36615 -11.5618 0.442471 -2.09023e-006 -4.95066e-006 -0.160808 19.031 68.4649 -19.9207 -8.12425 25.2333 3.48252 
38.0376 98.6371 -1.01629 0.893865 -3.6745 1.27833 0.164473 -0.873745 0.254153 0.331805 2.25578 0.477411 0.326388 3.90083 0.472229 1.03869 20.3523 -1.48145 -2.95035 -6.49656 -1.60442 75.0522 -1.36225 -2.47996 94.1367 23.3532 21.06 9.54166e-015 -3.18055e-015 6.36111e-015 12.4486 0.0935237 -0.00558405 4.20896e-006 -4.5063e-006 -3.02367 8.02888 -4.95143 0.697689 -66.1402 4.78334 -1.62468 -101.462 14.6003 -14.2597 2.01359e-005 -8.02752e-007 -4.60132e-007 -10.4594 6.19448 1.15609 7.09615e-006 1.30949e-006 3.00371 -8.02893 -4.95146 -0.697683 179.182 -2.50654 -0.390958 180 7.01554e-015 178.956 176.143 5.21256 179.733 -6.50077e-006 -2.11551e-006 0.0583639 -18.2974 67.662 19.262 8.14357 25.2323 -3.49075 -178.718 0.498152 2.60089 4.54188e-006 -4.6773e-006 -1.12573 -3.3693 -11.571 0.441719 -2.09023e-006 -4.95066e-006 -0.160768 19.0313 68.4653 -19.9212 -8.12425 25.2333 3.48252 
38.0397 98.6338 -1.01083 0.894571 -3.67154 1.27977 0.164432 -0.873535 0.253659 0.332628 2.25606 0.478249 0.327211 3.9011 0.473047 1.04866 20.3576 -1.48069 -2.95995 -6.50705 -1.60219 75.0518 -1.36156 -2.47962 94.1423 23.3531 21.0502 1.82882e-014 -1.27222e-014 9.54166e-015 12.4602 0.0935195 -0.0110966 4.20896e-006 -4.5063e-006 -3.02388 8.02888 -4.95143 0.697689 -66.133 4.78146 -1.62489 -101.478 14.5842 -14.2434 2.01359e-005 -8.02752e-007 -4.60132e-007 -10.474 6.18438 1.15489 7.09615e-006 1.30949e-006 3.00371 -8.02893 -4.95146 -0.697683 179.182 -2.50627 -0.38918 180 7.01554e-015 178.956 176.14 5.21474 179.734 -6.50077e-006 -2.11551e-006 0.0583639 -18.2963 67.6607 19.2608 8.14357 25.2323 -3.49075 -178.715 0.503268 2.59586 4.54188e-006 -4.6773e-006 -1.12573 -3.37291 -11.5804 0.440894 -2.09023e-006 -4.95066e-006 -0.160719 19.0317 68.4657 -19.9217 -8.12425 25.2333 3.48252 
38.029 98.6265 -1.00818 0.895272 -3.66854 1.28114 0.164386 -0.873333 0.25316 0.333461 2.2563 0.479104 0.328044 3.90134 0.473882 1.05862 20.3632 -1.47989 -2.96954 -6.51796 -1.59991 75.0515 -1.36083 -2.47927 94.1476 23.3531 21.0403 -5.56597e-015 0 -0 12.4719 0.0935153 -0.0165789 4.20896e-006 -4.5063e-006 -3.02408 8.02888 -4.95143 0.697689 -66.1259 4.77957 -1.6251 -101.494 14.5682 -14.2271 2.01359e-005 -8.02752e-007 -4.60132e-007 -10.4884 6.17455 1.15372 7.09615e-006 1.30949e-006 3.00371 -8.02893 -4.95146 -0.697683 179.182 -2.50604 -0.387591 180 7.01554e-015 178.956 176.138 5.21676 179.734 -6.50077e-006 -2.11551e-006 0.0583639 -18.2953 67.6595 19.2597 8.14357 25.2323 -3.49075 -178.712 0.508454 2.59057 4.54188e-006 -4.6773e-006 -1.12573 -3.37678 -11.5897 0.440026 -2.09023e-006 -4.95066e-006 -0.160664 19.0321 68.4662 -19.9221 -8.12425 25.2333 3.48252 
38.0299 98.6252 -1.00072 0.895972 -3.66553 1.28248 0.164339 -0.873133 0.25266 0.334297 2.25653 0.479964 0.328879 3.90157 0.474721 1.06857 20.369 -1.47906 -2.97912 -6.52899 -1.59763 75.0512 -1.36007 -2.47891 94.1529 23.3532 21.0304 4.77083e-015 0 6.36111e-015 12.4837 0.093511 -0.0220535 4.20896e-006 -4.5063e-006 -3.02427 8.02888 -4.95143 0.697689 -66.1188 4.77767 -1.62531 -101.51 14.5521 -14.2108 2.01359e-005 -8.02752e-007 -4.60132e-007 -10.5029 6.16479 1.15256 7.09615e-006 1.30949e-006 3.00371 -8.02893 -4.95146 -0.697683 179.183 -2.50581 -0.38605 180 7.01554e-015 178.956 176.136 5.21872 179.734 -6.50077e-006 -2.11551e-006 0.0583639 -18.2944 67.6583 19.2586 8.14357 25.2323 -3.49075 -178.709 0.513659 2.5852 4.54188e-006 -4.6773e-006 -1.12573 -3.38072 -11.5991 0.439148 -2.09023e-006 -4.95066e-006 -0.160609 19.0325 68.4666 -19.9226 -8.12425 25.2333 3.48252 
38.0267 98.6226 -0.995027 0.896674 -3.66254 1.28387 0.164294 -0.872929 0.252162 0.335127 2.25678 0.480815 0.329709 3.90182 0.475552 1.07852 20.3745 -1.47827 -2.98871 -6.5398 -1.59536 75.0509 -1.35935 -2.47856 94.1583 23.3532 21.0206 -7.95139e-015 -3.18055e-015 -0 12.4954 0.0935068 -0.0275434 4.20896e-006 -4.5063e-006 -3.02448 8.02888 -4.95143 0.697689 -66.1117 4.77579 -1.62552 -101.525 14.536 -14.1946 2.01359e-005 -8.02752e-007 -4.60132e-007 -10.5174 6.15489 1.15139 7.09615e-006 1.30949e-006 3.00371 -8.02893 -4.95146 -0.697683 179.183 -2.50557 -0.384414 180 7.01554e-015 178.956 176.134 5.22078 179.735 -6.50077e-006 -2.11551e-006 0.0583639 -18.2933 67.657 19.2575 8.14357 25.2323 -3.49075 -178.706 0.518828 2.57997 4.54188e-006 -4.6773e-006 -1.12573 -3.38453 -11.6085 0.43829 -2.09023e-006 -4.95066e-006 -0.160555 19.0328 68.467 -19.923 -8.12425 25.2333 3.48252 
38.0192 98.6225 -0.990406 0.897381 -3.6596 1.28535 0.164255 -0.872715 0.25167 0.335945 2.25707 0.481645 0.330527 3.90211 0.476362 1.0885 20.3796 -1.47754 -2.99831 -6.55007 -1.59315 75.0503 -1.3587 -2.47822 94.1641 23.353 21.0109 -9.54166e-015 -3.18055e-015 -3.18055e-015 12.507 0.0935026 -0.0330711 4.20896e-006 -4.5063e-006 -3.02469 8.02888 -4.95143 0.697689 -66.1045 4.77392 -1.62574 -101.541 14.5199 -14.1782 2.01359e-005 -8.02752e-007 -4.60132e-007 -10.532 6.14466 1.15016 7.09615e-006 1.30949e-006 3.00371 -8.02893 -4.95146 -0.697683 179.183 -2.50528 -0.382541 180 7.01554e-015 178.956 176.132 5.22306 179.735 -6.50077e-006 -2.11551e-006 0.0583639 -18.2922 67.6557 19.2563 8.14357 25.2323 -3.49075 -178.704 0.523908 2.57509 4.54188e-006 -4.6773e-006 -1.12573 -3.38801 -11.6177 0.437486 -2.09023e-006 -4.95066e-006 -0.160509 19.0332 68.4674 -19.9235 -8.12425 25.2333 3.48252 
38.0261 98.6207 -0.992188 0.898096 -3.65677 1.287 0.164225 -0.872486 0.251189 0.336742 2.25742 0.48244 0.331324 3.90246 0.477138 1.09851 20.384 -1.47692 -3.00794 -6.55946 -1.59103 75.0495 -1.35815 -2.47791 94.1705 23.3525 21.0013 7.95139e-016 -3.18055e-015 -3.18055e-015 12.5184 0.0934985 -0.0386594 4.20896e-006 -4.5063e-006 -3.02491 8.02888 -4.95143 0.697689 -66.0974 4.77208 -1.62597 -101.557 14.5037 -14.1618 2.01359e-005 -8.02752e-007 -4.60132e-007 -10.5467 6.13389 1.14886 7.09615e-006 1.30949e-006 3.00371 -8.02893 -4.95146 -0.697683 179.182 -2.50494 -0.380289 180 7.01554e-015 178.956 176.129 5.22568 179.736 -6.50077e-006 -2.11551e-006 0.0583639 -18.291 67.6541 19.255 8.14357 25.2323 -3.49075 -178.702 0.528845 2.57074 4.54188e-006 -4.6773e-006 -1.12573 -3.39097 -11.6269 0.436766 -2.09023e-006 -4.95066e-006 -0.160473 19.0336 68.4679 -19.924 -8.12425 25.2333 3.48252 
38.0226 98.6283 -0.984032 0.898824 -3.65406 1.28886 0.164207 -0.872235 0.250722 0.337511 2.25786 0.483188 0.332093 3.9029 0.477868 1.10857 20.3875 -1.47645 -3.01762 -6.56765 -1.58902 75.0483 -1.35776 -2.47762 94.1776 23.3517 20.9919 7.15625e-015 -3.18055e-015 6.36111e-015 12.5296 0.0934944 -0.0443311 4.20896e-006 -4.5063e-006 -3.02516 8.02888 -4.95143 0.697689 -66.0904 4.7703 -1.62622 -101.573 14.4874 -14.1452 2.01359e-005 -8.02752e-007 -4.60132e-007 -10.5616 6.12238 1.14746 7.09615e-006 1.30949e-006 3.00371 -8.02893 -4.95146 -0.697683 179.182 -2.50452 -0.377515 180 7.01554e-015 178.956 176.125 5.22877 179.736 -6.50077e-006 -2.11551e-006 0.0583639 -18.2896 67.6524 19.2534 8.14357 25.2323 -3.49075 -178.7 0.533588 2.56714 4.54188e-006 -4.6773e-006 -1.12573 -3.39321 -11.6359 0.436162 -2.09023e-006 -4.95066e-006 -0.160451 19.034 68.4684 -19.9245 -8.12425 25.2333 3.48252 
38.0153 98.6255 -0.980424 0.899566 -3.65151 1.29101 0.164204 -0.871957 0.250273 0.338244 2.25841 0.483876 0.332827 3.90344 0.478539 1.11868 20.3897 -1.47617 -3.02734 -6.57431 -1.58716 75.0465 -1.35756 -2.47736 94.1858 23.3504 20.9828 7.15625e-015 -9.54166e-015 6.36111e-015 12.5404 0.0934905 -0.0501089 4.20896e-006 -4.5063e-006 -3.02544 8.02888 -4.95143 0.697689 -66.0833 4.76857 -1.6265 -101.59 14.471 -14.1285 2.01359e-005 -8.02752e-007 -4.60132e-007 -10.5768 6.10994 1.14593 7.09615e-006 1.30949e-006 3.00371 -8.02893 -4.95146 -0.697683 179.181 -2.50399 -0.374078 180 7.01554e-015 178.956 176.121 5.23247 179.736 -6.50077e-006 -2.11551e-006 0.0583639 -18.2879 67.6503 19.2516 8.14357 25.2323 -3.49075 -178.698 0.538081 2.56449 4.54188e-006 -4.6773e-006 -1.12573 -3.39454 -11.6446 0.435707 -2.09023e-006 -4.95066e-006 -0.160448 19.0345 68.4689 -19.925 -8.12425 25.2333 3.48252 
